<?xml version="1.0" encoding="UTF-8"?>
<svg width="1200pt" height="1200pt" version="1.1" viewBox="0 0 1200 1200" xmlns="http://www.w3.org/2000/svg">
 <path d="m843.39 737.04-42.855-255.03v-1.5859l-76.191-96.824 1.0586-5.2891h-1.0586l6.8789-56.086-15.344-69.84-23.281-37.566 8.4648-50.793 20.105-40.742-115.34 39.684-136.51 1.0586-107.41-49.734 34.918 76.715-30.688 55.027v107.94l-14.816 96.297 1.5859 188.36 146.03 319.05-24.867 46.562 4.2344 43.387 26.984-31.219v4.7617l17.461 34.391 24.867-51.324 20.105-12.168 23.281-7.4062 71.957-46.031 88.891-26.453c49.207-1.0586 70.371-2.6445 79.895-4.7617 0 0 7.4062-5.8203 7.4062-6.3477l4.2344-161.38zm-12.699-13.227-114.29-117.99 76.191-109zm-41.797-240.74-76.191 109.52-0.52734-3.1758-14.285-80.422v-5.8203l23.281-105.29zm-261.91 331.21-59.789-221.16 220.64-80.422 15.344 87.301zm78.305-78.836 49.207 172.49-122.75-83.598zm-37.562-315.87 143.91-27.512-23.281 104.76-125.4-76.191 5.8203-1.0586zm112.17 84.656-208.46 76.191 78.836-155.03zm-220.11 75.66-93.652-125.4 172.49-29.629zm246.56-323.28 14.285 66.668-6.875 57.672-135.45 25.926 106.88-61.375 6.8789-111.64zm-5.8203-114.29-8.9961 17.988-8.4648 48.148-46.031-30.688-16.402-7.9375zm-94.18 31.746 20.637 10.055-74.074 121.16-15.871-0.52734-7.4062-0.52734-58.199-129.1zm-58.199 141.8-7.9375 24.34-7.4062-25.398h2.6445zm-27.512-4.2305 18.52 65.078 21.164-62.965 74.602-122.75 47.617 28.043-7.4062 120.11-126.98 72.488-126.98-67.195-15.344-78.309 56.613-85.715zm-143.92-62.965 31.746-57.672-24.867-54.496 72.488 33.332-61.906 94.18 17.461 87.832 67.195 35.449-101.59-36.508zm-1.0586 112.7 151.32 54.496-164.02 28.043zm-12.168 274.61-1.5859-169.31 93.652 125.4 63.492 234.92 3.1758 8.9961 43.914 130.69-57.145-14.285zm200.53 346.03-24.867 14.816-16.93 34.922-6.3477-13.227v-30.688l-29.629 33.863-1.5859-15.871 22.75-42.328 62.434 15.344 0.52734 1.0586zm95.238-53.441-71.957 46.031-6.8789 2.1172-46.562-138.09 130.16 88.359zm-44.973-200 91.535-114.29v0.52734l21.164 128.57-59.789 170.9zm137.04 173.55-75.66 22.223 58.73-168.25 92.062 142.33c-13.23 1.5859-46.035 3.1719-75.133 3.7031zm77.777-17.988-91.535-141.8-20.105-119.58 115.34 119.58c0 14.816-2.6445 103.7-3.7031 141.8z"/>
</svg>
