<svg width="1600" height="1600" viewBox="0 0 1600 1600" fill="none" xmlns="http://www.w3.org/2000/svg">
<path d="M1124.52 982.72L1067.38 642.68V640.565L965.792 511.467L967.204 504.415H965.792L974.964 429.633L954.505 336.513L923.464 286.425L934.75 218.701L961.557 164.379L807.77 217.291L625.757 218.702L482.544 152.39L529.101 254.677L488.184 328.046V471.966L468.429 600.362L470.543 851.509L665.25 1276.91L632.094 1338.99L637.74 1396.84L673.719 1355.22V1361.56L697 1407.42L730.156 1338.99L756.963 1322.76L788.004 1312.89L883.947 1251.51L1002.47 1216.24C1068.08 1214.83 1096.3 1212.72 1108.99 1209.89C1108.99 1209.89 1118.87 1202.13 1118.87 1201.43L1124.52 986.257L1124.52 982.72ZM1107.59 965.084L955.201 807.764L1056.79 662.431L1107.59 965.084ZM1051.86 644.097L950.271 790.124L949.568 785.89L930.521 678.66V670.9L961.562 530.513L1051.86 644.097ZM702.645 1085.71L622.927 790.831L917.113 683.601L937.572 800.003L702.645 1085.71ZM807.052 980.596L872.661 1210.58L708.995 1099.12L807.052 980.596ZM756.969 559.436L948.849 522.753L917.808 662.433L750.608 560.845L758.368 559.434L756.969 559.436ZM906.529 672.311L628.583 773.899L733.697 567.192L906.529 672.311ZM613.049 773.191L488.18 605.991L718.167 566.485L613.049 773.191ZM941.796 342.151L960.843 431.041L951.676 507.937L771.076 542.505L913.583 460.672L922.755 311.819L941.796 342.151ZM934.036 189.764L922.041 213.748L910.754 277.945L849.38 237.028L827.51 226.445L934.036 189.764ZM808.462 232.092L835.978 245.499L737.213 407.045L716.052 406.342L706.177 405.639L628.578 233.506L808.462 232.092ZM730.864 421.159L720.28 453.612L710.405 419.748H713.931L730.864 421.159ZM694.181 415.518L718.874 502.289L747.093 418.335L846.562 254.669L910.052 292.059L900.177 452.206L730.87 548.857L561.563 459.263L541.105 354.851L616.589 240.565L694.181 415.518ZM502.288 331.565L544.616 254.669L511.46 182.007L608.11 226.45L525.569 352.023L548.85 469.133L638.444 516.398L502.99 467.721L502.288 331.565ZM500.876 481.831L702.636 554.493L483.943 591.883L500.876 481.831ZM484.652 847.978L482.538 622.231L607.407 789.431L692.063 1102.66L696.297 1114.65L754.849 1288.91L678.656 1269.86L484.652 847.978ZM752.026 1309.35L718.87 1329.11L696.296 1375.67L687.833 1358.03V1317.12L648.327 1362.27L646.213 1341.1L676.546 1284.67L759.791 1305.13L760.495 1306.54L752.026 1309.35ZM879.009 1238.1L783.067 1299.47L773.895 1302.29L711.812 1118.17L885.359 1235.99L879.009 1238.1ZM819.046 971.43L941.092 819.043V819.746L969.311 991.173L889.592 1219.04L819.046 971.43ZM1001.77 1202.83L900.886 1232.46L979.192 1008.13L1101.94 1197.9C1084.3 1200.02 1040.56 1202.13 1001.76 1202.84L1001.77 1202.83ZM1105.47 1178.85L983.422 989.779L956.615 830.339L1110.4 989.779C1110.4 1009.53 1106.88 1128.05 1105.46 1178.85H1105.47Z" fill="white"/>
</svg>
